<svg width="200" height="200" viewBox="0 0 200 200" fill="none" xmlns="http://www.w3.org/2000/svg">
<path d="M75.2593 157.051C75.2593 156.497 75.2793 155.95 75.3173 155.411L66.3993 156.627C59.1723 157.646 57.1163 154.537 56.3273 149.971L41.0563 73.3546C41.0563 73.3546 24.4723 70.7967 20.8683 70.2027C17.2643 69.6137 15.6263 68.5086 15.0183 65.2376C14.4133 61.9656 12.5853 52.4106 12.1543 50.2406C11.4343 46.6446 13.2123 44.4106 17.9293 45.0946C22.6463 45.7816 50.3213 50.1287 50.3213 50.1287L57.4263 51.1908C57.7013 51.2298 57.9773 51.2766 58.2523 51.3326C60.2703 51.7486 61.7953 52.7737 63.1903 54.2547C65.6553 56.7497 69.1463 70.1536 69.1463 70.1536L162.869 81.7308C164.057 81.6358 168.464 83.0286 168.464 86.4666L159.106 138.142C159.106 142.061 155.59 144.483 153.34 144.787L144.65 145.971C145.011 147.587 145.211 149.337 145.211 151.159C145.211 159.432 141.135 166.136 136.104 166.136C131.074 166.136 126.995 159.432 126.995 151.159C126.995 150.201 127.051 149.262 127.156 148.356L98.9833 152.189C99.3143 153.729 99.4913 155.361 99.4913 157.051C99.4913 166.386 94.0673 173.953 87.3773 173.953C80.6844 173.954 75.2593 166.386 75.2593 157.051Z" fill="url(#paint0_linear_2866_585)"/>
<path d="M87.3444 173.948H87.4084C94.0824 173.925 99.4914 166.365 99.4914 157.044C99.4914 155.356 99.3134 153.724 98.9824 152.183L127.155 148.35C127.051 149.257 126.997 150.196 126.997 151.154C126.997 159.427 131.073 166.132 136.104 166.132C141.133 166.132 145.213 159.428 145.213 151.154C145.213 149.333 145.015 147.583 144.651 145.966L153.34 144.782C155.589 144.474 159.109 142.058 159.109 138.138L160.922 128.111C145.301 126.194 127.723 125.116 109.134 125.116C88.4384 125.116 68.9924 126.45 52.1084 128.795L56.3284 149.966C57.1164 154.532 59.1744 157.641 66.3994 156.624L75.3174 155.407C75.2804 155.946 75.2614 156.492 75.2614 157.044C75.2624 166.365 80.6694 173.925 87.3444 173.948Z" fill="url(#paint1_linear_2866_585)"/>
<path d="M89.4893 34.696C89.4893 29.892 93.3843 26 98.1893 26H178.362C183.166 26 187.06 29.892 187.06 34.696V85.927C187.06 89.444 185.725 91.7001 182.01 94.3391L149.344 116.885L156.257 94.6282H98.1893C93.3833 94.6282 89.4893 90.731 89.4893 85.927V34.696Z" fill="#24C8FE"/>
<path d="M149.344 116.887L164.897 106.152L168.461 86.4631C168.461 83.0251 164.056 81.6311 162.869 81.7261L89.4883 72.665V85.9282C89.4883 90.7362 93.3813 94.6292 98.1863 94.6292H156.256L149.344 116.887Z" fill="url(#paint2_linear_2866_585)"/>
<path d="M121.904 108.706C121.904 105.736 124.314 103.324 127.286 103.324C130.258 103.324 132.669 105.736 132.669 108.706C132.669 111.68 130.258 114.089 127.286 114.089C124.314 114.089 121.904 111.68 121.904 108.706ZM75.9375 108.706C75.9375 105.736 78.3465 103.324 81.3195 103.324C84.2915 103.324 86.7025 105.736 86.7025 108.706C86.7025 111.68 84.2915 114.089 81.3195 114.089C78.3465 114.089 75.9375 111.68 75.9375 108.706ZM98.9205 108.706C98.9205 105.736 101.329 103.324 104.303 103.324C107.276 103.324 109.686 105.736 109.686 108.706C109.686 111.68 107.276 114.089 104.303 114.089C101.329 114.089 98.9205 111.68 98.9205 108.706Z" fill="#EC9EFF"/>
<path d="M109.783 43.6733V49.1033H166.759V43.6733H109.783ZM105.035 43.4915C105.035 40.9375 107.103 38.8652 109.66 38.8652H166.886C169.44 38.8652 171.511 40.9375 171.511 43.4915V49.2883C171.511 51.8423 169.44 53.9133 166.886 53.9133H109.66C107.103 53.9133 105.035 51.8413 105.035 49.2883V43.4915ZM109.783 63.5303V68.9553H166.759V63.5303H109.783ZM105.035 63.3433C105.035 60.7883 107.103 58.7173 109.66 58.7173H166.886C169.44 58.7173 171.511 60.7883 171.511 63.3433V69.1414C171.511 71.6944 169.44 73.7664 166.886 73.7664H109.66C107.103 73.7664 105.035 71.6954 105.035 69.1414V63.3433Z" fill="#70FFFF"/>
<path d="M108.013 80.2969H140.189V85.7288H108.013V80.2969Z" fill="#70FFFF"/>
<defs>
<linearGradient id="paint0_linear_2866_585" x1="10.8284" y1="108.669" x2="168.612" y2="111.745" gradientUnits="userSpaceOnUse">
<stop stop-color="#FF6BA6"/>
<stop offset="0.059" stop-color="#EF68AA"/>
<stop offset="0.3114" stop-color="#AE5CB8"/>
<stop offset="0.5406" stop-color="#7A53C4"/>
<stop offset="0.7391" stop-color="#554DCC"/>
<stop offset="0.8988" stop-color="#3E48D1"/>
<stop offset="1" stop-color="#3647D3"/>
</linearGradient>
<linearGradient id="paint1_linear_2866_585" x1="52.159" y1="145.884" x2="157.046" y2="152.994" gradientUnits="userSpaceOnUse">
<stop stop-color="#1B2BBB"/>
<stop offset="0.6138" stop-color="#0D6DD2"/>
<stop offset="0.9677" stop-color="#068FDE"/>
</linearGradient>
<linearGradient id="paint2_linear_2866_585" x1="90.0588" y1="76.3559" x2="169.542" y2="103.813" gradientUnits="userSpaceOnUse">
<stop stop-color="#1E30D2"/>
<stop offset="1" stop-color="#04DBF0"/>
</linearGradient>
</defs>
</svg>
